<?xml version="1.0" encoding="iso-8859-1"?>
<!-- Generator: Adobe Illustrator 24.0.1, SVG Export Plug-In . SVG Version: 6.00 Build 0)  -->
<svg version="1.1" id="&#x56FE;&#x5C42;_1" xmlns="http://www.w3.org/2000/svg" xmlns:xlink="http://www.w3.org/1999/xlink" x="0px"
	 y="0px" viewBox="0 0 1366 768" style="enable-background:new 0 0 1366 768;" xml:space="preserve">
<g>
	<circle style="fill:#1d3348;" cx="734.258" cy="405.223" r="231.647"/>
	<g>
		<g>
			<path style="fill:#ff7fb8;" d="M914.294,572.537c-2.451-7.375-6.658-14.143-12.099-19.683
				c-5.385-5.674-12.498-9.383-19.718-11.728l-5.527-1.462l-5.653-0.573c-3.479-0.502-6.996,0.007-10.435,0.187
				c-1.861-6.137-5.708-11.611-11.211-15.444c-5.785-4.051-13.289-5.174-19.996-4.108c-3.388,0.369-6.753,1.499-9.915,2.966
				c-3.099,1.656-5.959,3.805-8.216,6.476c-4.05,4.775-6.357,10.528-6.955,16.528c-2.398-0.842-4.889-1.415-7.339-1.742
				c-7.937-1.066-16.123-0.346-23.778,1.833c-15.304,4.158-29.001,11.792-42.642,18.427c-13.549,6.504-28.299,11.252-43.189,10.735
				c-7.401-0.293-14.727-2.125-21.256-5.637c-6.546-3.483-12.215-8.583-16.821-14.528l-0.023-0.027l-0.079-0.093
				c-0.356-0.417-0.944-0.595-1.494-0.404c-0.715,0.249-1.094,1.03-0.844,1.746c4.052,11.653,12.101,21.455,22.247,28.329
				c10.137,6.949,22.333,10.356,34.357,11.292c12.164,1.031,24.092-0.828,35.737-2.533c11.649-1.679,23.377-3.877,34.676-1.721
				c5.542,1.066,11.065,3.142,14.764,6.859c1.807,1.856,3.079,4.063,3.6,6.409c0.49,2.308,0.08,4.869-0.748,7.328
				c-1.584,4.878-5.871,8.064-10.982,8.052c-5.009,0.039-10.465-2.364-15.606-4.8c-10.381-5.258-21.635-10.674-33.815-12.222
				c-12.139-1.696-24.877,1.003-35.009,7.497l-0.111,0.059c-0.339,0.185-0.548,0.566-0.493,0.972c0.07,0.526,0.554,0.895,1.08,0.825
				l0.055-0.007c9.877-1.322,20.11-1.462,29.806,0.409c9.594,1.923,18.815,6.471,25.131,13.666
				c3.212,3.585,5.864,7.799,8.715,12.046c2.765,4.184,6.018,8.775,10.474,12.128c4.323,3.391,10.23,5.837,16.334,4.887
				c5.52-0.804,9.788-4.458,12.405-8.542c3.506,4.184,7.707,7.674,12.594,10.358c5.36,3.073,11.952,4.757,18.503,3.8
				c6.431-0.746,12.9-4.701,16.171-10.495c2.924-5.234,3.724-11.023,3.094-16.538c6.331,2.509,13.024,3.876,19.897,4.023
				c7.541,0.205,15.317-1.418,22.151-5.122c6.865-3.682,12.487-9.359,16.621-15.831c4.169-6.478,6.915-13.953,7.7-21.653
				C917.322,587.817,916.691,579.937,914.294,572.537z"/>
			<linearGradient id="SVGID_1_" gradientUnits="userSpaceOnUse" x1="724.1212" y1="640.6758" x2="857.0774" y2="507.7196">
				<stop  offset="0.0261" style="stop-color:#FFD998"/>
				<stop  offset="0.3787" style="stop-color:#EBB559"/>
				<stop  offset="0.7437" style="stop-color:#FFE8B3"/>
				<stop  offset="1" style="stop-color:#EFC57C"/>
			</linearGradient>
			<path style="fill:url(#SVGID_1_);" d="M914.294,572.537c-2.451-7.375-6.658-14.143-12.099-19.683
				c-5.385-5.674-12.498-9.383-19.718-11.728l-5.527-1.462l-5.653-0.573c-3.479-0.502-6.996,0.007-10.435,0.187
				c-1.861-6.137-5.708-11.611-11.211-15.444c-5.785-4.051-13.289-5.174-19.996-4.108c-3.388,0.369-6.753,1.499-9.915,2.966
				c-3.099,1.656-5.959,3.805-8.216,6.476c-4.05,4.775-6.357,10.528-6.955,16.528c-2.398-0.842-4.889-1.415-7.339-1.742
				c-7.937-1.066-16.123-0.346-23.778,1.833c-15.304,4.158-29.001,11.792-42.642,18.427c-13.549,6.504-28.299,11.252-43.189,10.735
				c-7.401-0.293-14.727-2.125-21.256-5.637c-6.546-3.483-12.215-8.583-16.821-14.528l-0.023-0.027l-0.079-0.093
				c-0.356-0.417-0.944-0.595-1.494-0.404c-0.715,0.249-1.094,1.03-0.844,1.746c4.052,11.653,12.101,21.455,22.247,28.329
				c10.137,6.949,22.333,10.356,34.357,11.292c12.164,1.031,24.092-0.828,35.737-2.533c11.649-1.679,23.377-3.877,34.676-1.721
				c5.542,1.066,11.065,3.142,14.764,6.859c1.807,1.856,3.079,4.063,3.6,6.409c0.49,2.308,0.08,4.869-0.748,7.328
				c-1.584,4.878-5.871,8.064-10.982,8.052c-5.009,0.039-10.465-2.364-15.606-4.8c-10.381-5.258-21.635-10.674-33.815-12.222
				c-12.139-1.696-24.877,1.003-35.009,7.497l-0.111,0.059c-0.339,0.185-0.548,0.566-0.493,0.972c0.07,0.526,0.554,0.895,1.08,0.825
				l0.055-0.007c9.877-1.322,20.11-1.462,29.806,0.409c9.594,1.923,18.815,6.471,25.131,13.666
				c3.212,3.585,5.864,7.799,8.715,12.046c2.765,4.184,6.018,8.775,10.474,12.128c4.323,3.391,10.23,5.837,16.334,4.887
				c5.52-0.804,9.788-4.458,12.405-8.542c3.506,4.184,7.707,7.674,12.594,10.358c5.36,3.073,11.952,4.757,18.503,3.8
				c6.431-0.746,12.9-4.701,16.171-10.495c2.924-5.234,3.724-11.023,3.094-16.538c6.331,2.509,13.024,3.876,19.897,4.023
				c7.541,0.205,15.317-1.418,22.151-5.122c6.865-3.682,12.487-9.359,16.621-15.831c4.169-6.478,6.915-13.953,7.7-21.653
				C917.322,587.817,916.691,579.937,914.294,572.537z M910.02,594.753c-0.579,6.78-2.903,13.371-6.498,19.133
				c-3.418,5.873-8.124,11.081-13.966,14.539c-11.738,6.983-27.083,7.008-40.459,2.693l-0.254-0.082
				c-0.178-0.057-0.374-0.068-0.57-0.023c-0.579,0.134-0.941,0.714-0.806,1.295c0.012,0.055,0,0.11-0.003,0.166
				c-0.488,5.57-2.076,11.1-4.979,15.285c-2.903,4.196-7.437,6.707-12.544,7.494c-5.057,0.763-10.34-0.314-15.351-2.519
				c-4.969-2.23-9.743-5.486-13.977-9.134l-0.355-0.306l-0.228-0.153c-0.573-0.289-1.272-0.061-1.561,0.511
				c-0.025,0.05-0.081,0.073-0.124,0.109c-3.839,3.082-7.703,5.625-11.805,5.897c-4.08,0.531-8.246-1.255-11.95-3.875
				c-7.495-5.28-11.976-14.921-19.418-22.516c-7.501-7.766-17.687-12.146-27.943-13.737c-7.58-1.104-15.159-1.057-22.658-0.24
				c8.48-2.733,17.427-3.484,26.118-1.931c11.349,1.789,21.715,6.92,32.182,12.522c5.427,2.566,11.093,5.278,18.012,5.318
				c3.369-0.082,6.904-1.07,9.749-3.213c2.885-2.087,4.854-5.165,5.95-8.332c1.058-3.11,1.494-6.606,0.693-10.095
				c-0.814-3.422-2.836-6.404-5.299-8.602c-5.021-4.449-11.289-6.072-17.243-7.129c-12.153-1.942-24.144,0.102-35.803,1.347
				c-11.72,1.326-23.407,2.601-34.828,1.61c-11.375-1.008-22.791-3.838-32.312-10.167c-6.036-3.794-11.46-8.791-15.762-14.575
				c2.665,2.361,5.56,4.474,8.678,6.25c6.895,3.972,14.772,6.179,22.683,6.713c15.933,0.994,31.478-3.615,45.666-9.882
				c14.125-6.367,27.702-13.329,41.986-17.721c7.08-2.111,14.401-3.243,21.777-2.951c7.281,0.16,14.669,2.215,20.159,7.535
				c0.141,0.135,0.361,0.164,0.534,0.056c0.203-0.128,0.265-0.397,0.138-0.6c-2.329-3.746-5.86-6.512-9.865-8.424
				c1.364-5.33,3.946-10.525,7.661-14.271c4.024-4.017,9.271-6.454,15.054-7.171c5.729-0.923,11.5-0.222,16.471,2.566
				c4.949,2.742,9.08,7.477,11.894,12.741c0.23,0.422,0.665,0.751,1.178,0.809l0.168,0.019c14.268,0.75,28.023,5.701,37.284,15.724
				c4.603,4.956,8.057,10.867,10.353,17.241C910.033,581.105,910.676,588.01,910.02,594.753z"/>
		</g>
		<g>
			<linearGradient id="SVGID_2_" gradientUnits="userSpaceOnUse" x1="925.2797" y1="624.4543" x2="731.2869" y2="556.6357">
				<stop  offset="0.0261" style="stop-color:#FFD998"/>
				<stop  offset="0.3787" style="stop-color:#EBB559"/>
				<stop  offset="0.7437" style="stop-color:#FFE8B3"/>
				<stop  offset="1" style="stop-color:#EFC57C"/>
			</linearGradient>
			<path style="fill:url(#SVGID_2_);" d="M727.169,579.606c15.476-3.353,28.457-12.284,43.102-18.51
				c7.364-2.896,15.261-5.272,23.388-5.044c8.001,0.171,16.302,2.703,21.922,8.383c-6.428-4.614-14.313-6.259-21.908-5.969
				c-7.644,0.27-15.104,2.48-22.209,5.529c-7.219,2.823-14.13,6.567-21.429,9.616C742.77,576.657,735.083,579.245,727.169,579.606z"
				/>
			<linearGradient id="SVGID_3_" gradientUnits="userSpaceOnUse" x1="931.6125" y1="606.3417" x2="737.6196" y2="538.5231">
				<stop  offset="0.0261" style="stop-color:#FFD998"/>
				<stop  offset="0.3787" style="stop-color:#EBB559"/>
				<stop  offset="0.7437" style="stop-color:#FFE8B3"/>
				<stop  offset="1" style="stop-color:#EFC57C"/>
			</linearGradient>
			<path style="fill:url(#SVGID_3_);" d="M865.884,550.755c8.594,0.35,17.154,3.499,24.127,8.889
				c7.033,5.349,12.049,13.299,14.202,21.921c1.988,8.632,1.079,18.166-3.441,25.875c-4.393,7.671-11.795,13.664-20.249,15.532
				c8.006-3.116,14.426-9.295,18.122-16.676c3.76-7.374,4.57-16.026,2.518-24.003c-1.775-8.067-6.376-15.364-12.675-20.79
				C882.198,556.037,874.291,552.391,865.884,550.755z"/>
			<linearGradient id="SVGID_4_" gradientUnits="userSpaceOnUse" x1="912.4781" y1="661.0795" x2="718.482" y2="593.2597">
				<stop  offset="0.0261" style="stop-color:#FFD998"/>
				<stop  offset="0.3787" style="stop-color:#EBB559"/>
				<stop  offset="0.7437" style="stop-color:#FFE8B3"/>
				<stop  offset="1" style="stop-color:#EFC57C"/>
			</linearGradient>
			<path style="fill:url(#SVGID_4_);" d="M805.97,603.062c4.098,7.56,2.815,17.872-2.934,24.791
				c-5.745,6.921-15.657,10.071-23.838,7.414c8.457,0.108,16.384-3.376,21.426-9.42C805.65,619.791,807.63,611.354,805.97,603.062z"
				/>
		</g>
	</g>
	<g>
		<g>
			<path style="fill:#ff7fb8;" d="M1009.115,418.229l-0.062-0.118c-0.268-0.535-0.557-1.046-0.858-1.544
				c-5.314-10.101-14.455-18.386-25.315-22.346c-5.55-2.185-11.419-3.359-17.292-3.965c-5.999-0.551-12.003,0.027-17.78,1.228
				c-6.094,1.198-12.003,3.189-17.737,5.454c0.854-2.977,0.966-5.983,0.91-9.033c-0.223-4.895-1.721-9.924-4.902-14.034
				c-3.167-4.14-8.001-6.763-12.97-7.601c-4.267-0.654-8.445-0.19-12.38,1.234c-0.284-2.121-1.067-4.243-2.347-6.091
				c-1.681-2.49-4.229-4.285-6.902-5.427c-4.429-1.694-9.367-1.775-13.665-0.131c-3.847-10.646-12.709-19.066-23.228-22.992
				c-12.687-4.221-26.947-1.091-36.665,7.472c-3.253-2.187-7.047-3.412-11.082-3.552c-4.425-0.231-8.849,1.326-12.527,3.594
				c-3.761,2.465-6.755,6.516-7.791,10.84c-0.917,3.675-0.925,7.254-0.146,10.8c-6.756,2.385-11.635,8.147-14.239,14.405
				c-2.816,6.935-3.468,14.213-3.049,21.32c0.63,14.354,6.667,28.06,15.685,38.935c9.17,10.818,21.223,18.962,34.397,23.763
				c13.11,4.937,27.27,7.015,41.248,5.83c13.954-1.193,27.559-5.412,39.831-11.797c12.388-6.235,23.67-14.209,34.709-22.147
				c10.935-8.031,22.286-15.249,35.17-18.818c6.353-1.848,13.004-2.614,19.448-1.917c6.422,0.779,12.507,3.57,16.695,8.411
				l0.087,0.1c0.498,0.575,1.341,0.756,2.045,0.388C1009.226,420.062,1009.545,419.05,1009.115,418.229z"/>
			<linearGradient id="SVGID_5_" gradientUnits="userSpaceOnUse" x1="814.6547" y1="466.925" x2="938.1122" y2="343.4676">
				<stop  offset="0.0261" style="stop-color:#FFD998"/>
				<stop  offset="0.3787" style="stop-color:#EBB559"/>
				<stop  offset="0.7437" style="stop-color:#FFE8B3"/>
				<stop  offset="1" style="stop-color:#EFC57C"/>
			</linearGradient>
			<path style="fill:url(#SVGID_5_);" d="M1009.115,418.229l-0.062-0.118c-0.268-0.535-0.557-1.046-0.858-1.544
				c-5.314-10.101-14.455-18.386-25.315-22.346c-5.55-2.185-11.419-3.359-17.292-3.965c-5.999-0.551-12.003,0.027-17.78,1.228
				c-6.094,1.198-12.003,3.189-17.737,5.454c0.854-2.977,0.966-5.983,0.91-9.033c-0.223-4.895-1.721-9.924-4.902-14.034
				c-3.167-4.14-8.001-6.763-12.97-7.601c-4.267-0.654-8.445-0.19-12.38,1.234c-0.284-2.121-1.067-4.243-2.347-6.091
				c-1.681-2.49-4.229-4.285-6.902-5.427c-4.429-1.694-9.367-1.775-13.665-0.131c-3.847-10.646-12.709-19.066-23.228-22.992
				c-12.687-4.221-26.947-1.091-36.665,7.472c-3.253-2.187-7.047-3.412-11.082-3.552c-4.425-0.231-8.849,1.326-12.527,3.594
				c-3.761,2.465-6.755,6.516-7.791,10.84c-0.917,3.675-0.925,7.254-0.146,10.8c-6.756,2.385-11.635,8.147-14.239,14.405
				c-2.816,6.935-3.468,14.213-3.049,21.32c0.63,14.354,6.667,28.06,15.685,38.935c9.17,10.818,21.223,18.962,34.397,23.763
				c13.11,4.937,27.27,7.015,41.248,5.83c13.954-1.193,27.559-5.412,39.831-11.797c12.388-6.235,23.67-14.209,34.709-22.147
				c10.935-8.031,22.286-15.249,35.17-18.818c6.353-1.848,13.004-2.614,19.448-1.917c6.422,0.779,12.507,3.57,16.695,8.411
				l0.087,0.1c0.498,0.575,1.341,0.756,2.045,0.388C1009.226,420.062,1009.545,419.05,1009.115,418.229z M948.734,395.792
				c5.454-1.225,11.021-1.836,16.496-1.421c5.561,0.484,11.097,1.5,16.293,3.454c4.382,1.549,8.514,3.752,12.234,6.515
				c-3.875-1.934-7.999-3.351-12.233-4.238c-10.942-2.378-22.49-0.759-32.741,3.123c-20.728,7.584-37.809,21.508-57.392,29.259
				c-9.73,3.834-20.091,6.451-30.394,6.893c-10.208,0.273-20.624-1.794-28.34-8.235c-7.62-6.202-12.609-16.433-11.823-26.227
				c0.848-9.293,7.595-18.176,16.45-21.568c0.345,0.673,0.743,1.321,1.197,1.931c4.617,5.784,11.962,7.686,18.718,7.698
				c5.778,0.038,11.766-2.548,15.842-6.909c2.091,1.475,3.975,3.078,5.303,5.12c1.667,2.602,2.667,5.539,2.974,8.629
				c0.395,6.169-1.728,12.851-6.254,17.373c-2.168,2.334-4.962,4.01-7.989,4.812c-3.022,0.912-6.459,1.136-9.483,0.358
				c-6.18-1.382-10.723-7.991-10.918-14.688l-0.003-0.066c-0.008-0.302-0.235-0.561-0.544-0.601
				c-0.342-0.044-0.654,0.197-0.699,0.539c-0.489,3.779,0.538,7.49,2.362,10.813c1.849,3.327,5.034,6.077,8.81,7.264
				c3.773,1.241,7.683,1.263,11.488,0.444c3.869-0.788,7.445-2.836,10.222-5.561c2.532-2.401,4.567-5.298,5.991-8.479
				c5.006,1.773,10.543,1.934,15.694,1.155c5.95-1.06,11.603-2.939,16.949-5.273C927.632,403.09,937.668,398.177,948.734,395.792z
				 M889.591,360.823c4.06,1.402,6.89,4.665,8.064,9.127l0.014,0.046l0.02,0.071c0.271,0.941,1.247,1.495,2.198,1.239
				c3.977-1.07,8.442-1.398,12.366-0.498c3.956,0.844,7.514,3.03,9.946,6.089c2.433,3.116,3.668,7.167,4.054,11.318
				c0.262,3.639-0.062,7.908-1.41,10.869c-3.328,1.41-6.597,2.86-9.81,4.245c-9.601,3.944-19.698,7.349-29.508,5.411
				c0.898-3.01,1.269-6.194,1.025-9.397c-0.431-3.968-1.977-7.856-4.511-10.957c-1.807-2.349-4.224-3.983-6.76-5.201
				c0.008-0.012,0.016-0.024,0.024-0.036c3.86-6.094,5.043-13.192,4.28-20.082c-0.129-0.987-0.306-1.96-0.518-2.92
				C882.636,359.443,886.345,359.558,889.591,360.823z M969.083,409.656c-13.574,3.539-25.743,10.998-36.755,18.954
				c-11.108,7.877-22.221,15.596-34.24,21.54c-11.918,6.099-24.878,9.977-38.065,11.022c-13.17,1.037-26.616-1.033-38.943-5.778
				c-12.382-4.602-23.542-12.308-31.939-22.343c-8.244-10.1-13.633-22.637-14.104-35.605c-0.301-6.444,0.323-13.052,2.505-18.837
				c2.165-5.707,6.355-10.84,11.813-13.027l0.059-0.027l0.139-0.063c0.945-0.438,1.561-1.433,1.465-2.531
				c-0.291-3.34-0.035-7.06,1.028-10.11c1.035-3.112,2.912-5.657,5.619-7.387c2.762-1.909,5.908-3.066,9.224-3.243
				c3.286-0.259,6.855,0.507,10.002,1.868l0.141,0.058l0.303,0.127c0.627,0.261,1.372,0.179,1.939-0.276
				c9.276-7.46,22.61-9.786,33.454-5.92c10.661,4.243,19.824,14.226,21.125,25.696c0.601,5.626-0.161,11.792-3.065,16.493
				c-2.874,4.73-8.028,7.702-13.775,7.888c-5.694,0.345-11.962-1.119-15.708-5.174c-0.607-0.644-1.112-1.367-1.521-2.146
				c-0.003-0.012-0.004-0.024-0.009-0.036c-0.058-0.211-0.155-0.4-0.279-0.564c-1.772-3.996-1.091-9.233,1.996-13.016
				c0.202-0.261,0.199-0.652-0.034-0.897c-0.261-0.27-0.688-0.279-0.959-0.021c-2.455,2.224-4.184,5.389-4.677,8.861
				c-0.213,1.629-0.113,3.323,0.276,4.965c-10.403,3.587-18.319,13.206-19.697,24.314c-0.653,5.829,0.483,11.686,2.769,16.913
				c2.229,5.276,5.674,10.073,10.075,13.831c4.381,3.763,9.619,6.551,15.148,8.071c5.547,1.447,11.241,1.921,16.842,1.661
				c11.172-0.728,21.904-3.563,32.082-7.735c20.362-8.45,37.193-22.54,56.944-29.99c9.716-3.817,20.327-5.414,30.509-3.354
				c4.857,0.951,9.575,2.656,13.882,5.082c-1.511-0.416-3.047-0.733-4.586-0.981C982.97,407.054,975.824,407.811,969.083,409.656z"
				/>
		</g>
		<g>
			<linearGradient id="SVGID_6_" gradientUnits="userSpaceOnUse" x1="835.2967" y1="491.1905" x2="850.6641" y2="318.6556">
				<stop  offset="0.0261" style="stop-color:#FFD998"/>
				<stop  offset="0.3787" style="stop-color:#EBB559"/>
				<stop  offset="0.7437" style="stop-color:#FFE8B3"/>
				<stop  offset="1" style="stop-color:#EFC57C"/>
			</linearGradient>
			<path style="fill:url(#SVGID_6_);" d="M826.798,348.972c4.401-3.192,9.724-5.289,15.359-5.722
				c5.626-0.515,11.52,1.103,16.199,4.446c4.667,3.33,8.167,8.544,8.96,14.243c0.886,5.586-0.394,11.661-4.178,15.696
				c2.656-4.748,3.041-10.284,1.81-15.219c-1.243-4.95-4.287-9.264-8.419-12.171c-4.094-2.989-9.132-4.505-14.296-4.594
				C837.047,345.569,831.809,346.919,826.798,348.972z"/>
			<linearGradient id="SVGID_7_" gradientUnits="userSpaceOnUse" x1="813.6715" y1="489.2656" x2="829.039" y2="316.7295">
				<stop  offset="0.0261" style="stop-color:#FFD998"/>
				<stop  offset="0.3787" style="stop-color:#EBB559"/>
				<stop  offset="0.7437" style="stop-color:#FFE8B3"/>
				<stop  offset="1" style="stop-color:#EFC57C"/>
			</linearGradient>
			<path style="fill:url(#SVGID_7_);" d="M788.412,375.573c-3.378,9.651-3.963,20.092-1.657,29.792
				c2.246,9.701,7.765,18.449,14.599,25.669c6.743,7.391,15.339,12.902,24.557,16.918c9.255,4.017,19.214,6.359,29.331,7.85
				c-10.231-0.208-20.519-1.964-30.232-5.63c-9.707-3.645-18.684-9.437-25.934-16.99c-3.611-3.789-6.653-8.098-9.207-12.64
				c-2.63-4.507-4.6-9.512-5.498-14.669C782.45,395.585,783.79,384.746,788.412,375.573z"/>
			<linearGradient id="SVGID_8_" gradientUnits="userSpaceOnUse" x1="879.3112" y1="495.1129" x2="894.6788" y2="322.5753">
				<stop  offset="0.0261" style="stop-color:#FFD998"/>
				<stop  offset="0.3787" style="stop-color:#EBB559"/>
				<stop  offset="0.7437" style="stop-color:#FFE8B3"/>
				<stop  offset="1" style="stop-color:#EFC57C"/>
			</linearGradient>
			<path style="fill:url(#SVGID_8_);" d="M881.021,380.015c5.363,0.397,10.171,4.326,12.772,9.055
				c2.584,4.744,3.495,10.673,1.448,15.622c-0.448-5.229-1.851-9.875-4.193-14.103C888.735,386.346,885.505,382.78,881.021,380.015z
				"/>
		</g>
	</g>
	<g>
		<g>
			<path style="fill:#ff7fb8;" d="M867.775,208.17c-5.222-5.177-12.038-7.369-18.791-7.662c0.407-3.118,0.294-6.388-0.644-9.596
				c-1.033-3.773-3.504-7.255-6.738-9.683c-5.331-3.833-12.259-4.567-18.117-2.646c0.454-3.11,0.203-6.335-0.633-9.271
				c-1.241-5.081-4.506-9.916-9.045-12.783c-4.089-2.532-8.634-3.717-13.227-3.522c0.377-6.6-1.347-13.254-5.181-18.989
				c-2.126-3.031-4.934-5.64-8.123-7.529c-3.138-1.985-6.632-3.331-10.238-3.961c-7.183-1.411-14.625-0.618-21.287,1.989
				c-5.946,2.39-11.839,6.045-15.27,11.927c-4.967-2.526-10.526-3.476-15.943-3.415c-4.807,0.225-9.717,1.178-14.01,3.73
				c-1.872-4.291-4.735-8.17-8.291-11.25c-4.607-4.004-10.487-6.404-16.342-7.192c-11.367-1.538-23.446,2.519-30.431,11.726
				c-11.067-7.705-25.31-9.918-38.359-6.92c-6.755,1.602-13.261,3.921-19.203,7.768c-5.837,3.854-11.086,8.795-14.84,14.782
				c-2.123,3.409-3.844,7.042-5.178,10.807c-7.063-2.473-14.915-2.986-22.31-1.15c-8.223,1.809-15.666,6.63-21.129,13.044
				c-2.686,3.27-4.868,6.93-6.308,10.941c-1.516,4.066-1.959,8.503-1.495,12.728c1.065,8.169,4.905,15.359,10.166,21.16
				c-5.544,6.783-8.44,15.913-6.846,24.962c1.688,9.276,7.494,17.594,15.737,22.466c8.341,4.765,18.288,5.331,27.171,3.46
				c0.294-0.064,0.588-0.131,0.881-0.201c1.473,4.268,3.695,8.146,6.632,11.686c3.436,4.089,8.258,7.466,13.71,8.781
				c5.343,1.231,11.1,0.973,16.126-1.013c4.442-1.721,8.361-4.295,11.56-7.692c1.152,2.091,2.892,3.791,5.052,5.044
				c2.71,1.528,5.967,2.081,9.077,1.546c4.92-0.856,9.351-4.168,11.23-8.705c5.454,2.539,11.549,3.305,16.241,4.424
				c5.908,1.506,11.582,3.665,15.693,7.481c4.071,3.697,6.699,9.442,6.266,14.777c-0.34,5.454-4.177,10.324-9.278,13.451
				c-5.076,3.286-11.2,5.028-17.433,6.258c-12.601,2.429-25.559,3.542-38.501,4.132c-25.94,1.394-51.879,0.362-77.992,2.196
				c-13.006,1.138-26.097,3.514-38.323,8.824c-6.021,2.793-11.862,6.295-16.646,11.17c-4.794,4.827-8.272,11.11-9.667,17.851
				c-2.765,13.398,1.415,28.152,11.453,37.588c10.001,9.448,23.357,13.634,36.266,15.562c13.097,1.927,26.133,1.632,39.115,1.997
				l38.976,0.468c25.848,0.524,52.253,1.45,76.639,8.901c5.987,1.913,11.797,4.503,16.262,8.337
				c2.195,1.934,3.901,4.238,4.974,6.825c1.072,2.602,1.16,5.54,0.964,8.449c-0.731,5.625-4.439,10.729-9.534,14.312
				c-5.018,3.654-10.916,6.392-16.977,8.381l-0.161,0.049l-0.063,0.019c-0.316,0.098-0.546,0.392-0.547,0.74
				c0,0.429,0.347,0.777,0.776,0.778c12.444,0.033,25.392-1.518,36.601-8.459c5.478-3.495,10.106-9.192,11.461-15.918
				c1.389-6.574,0.539-13.637-3.188-19.49c-3.66-5.895-9.699-9.382-15.53-11.859c-5.947-2.45-12.12-3.899-18.291-5.036
				c-12.375-2.202-24.843-2.745-37.232-3.363c-24.801-1.217-49.601-1.084-74.317-2.259c-6.178-0.281-12.343-0.662-18.483-1.143
				c-6.197-0.458-12.082-1.185-17.717-3.152c-11.218-3.776-20.621-12.235-24.493-23.276c-1.998-5.555-2.879-11.239-1.545-16.812
				c1.241-5.577,4.1-10.839,8.177-14.947c4.075-4.117,9.172-7.278,14.762-9.32c5.559-2.15,11.578-2.907,17.703-3.658
				c24.53-2.548,49.389-3.137,74.122-4.505c12.386-0.539,24.765-1.238,37.157-2.16c12.377-1.028,24.81-2.281,37.06-5.331
				c12.056-3.105,24.692-8.06,33.275-18.612c7.223-9.304,10.886-21.717,8.497-33.432c3.143,0.377,6.321,0.402,9.428,0.083
				c8.893-0.897,17.496-3.787,25.111-8.56c0.42-0.271,0.836-0.548,1.249-0.831c4.327,4.094,9.391,7.126,15.067,9.113
				c6.582,2.211,14.143,2.343,20.692,0.455c6.67-1.652,13.156-5.224,17.716-10.606c4.058-4.863,6.503-10.733,7.129-16.933
				c6.223,2.523,13.261,2.825,19.84,0.51c7.49-2.389,12.861-9.788,14.065-17.326C875.26,222.102,873.122,213.955,867.775,208.17z"/>
			<linearGradient id="SVGID_9_" gradientUnits="userSpaceOnUse" x1="514.5805" y1="427.3467" x2="801.9322" y2="139.995">
				<stop  offset="0.0261" style="stop-color:#FFD998"/>
				<stop  offset="0.3787" style="stop-color:#EBB559"/>
				<stop  offset="0.7437" style="stop-color:#FFE8B3"/>
				<stop  offset="1" style="stop-color:#EFC57C"/>
			</linearGradient>
			<path style="fill:url(#SVGID_9_);" d="M867.775,208.17c-5.222-5.177-12.038-7.369-18.791-7.662
				c0.407-3.118,0.294-6.388-0.644-9.596c-1.033-3.773-3.504-7.255-6.738-9.683c-5.331-3.833-12.259-4.567-18.117-2.646
				c0.454-3.11,0.203-6.335-0.633-9.271c-1.241-5.081-4.506-9.916-9.045-12.783c-4.089-2.532-8.634-3.717-13.227-3.522
				c0.377-6.6-1.347-13.254-5.181-18.989c-2.126-3.031-4.934-5.64-8.123-7.529c-3.138-1.985-6.632-3.331-10.238-3.961
				c-7.183-1.411-14.625-0.618-21.287,1.989c-5.946,2.39-11.839,6.045-15.27,11.927c-4.967-2.526-10.526-3.476-15.943-3.415
				c-4.807,0.225-9.717,1.178-14.01,3.73c-1.872-4.291-4.735-8.17-8.291-11.25c-4.607-4.004-10.487-6.404-16.342-7.192
				c-11.367-1.538-23.446,2.519-30.431,11.726c-11.067-7.705-25.31-9.918-38.359-6.92c-6.755,1.602-13.261,3.921-19.203,7.768
				c-5.837,3.854-11.086,8.795-14.84,14.782c-2.123,3.409-3.844,7.042-5.178,10.807c-7.063-2.473-14.915-2.986-22.31-1.15
				c-8.223,1.809-15.666,6.63-21.129,13.044c-2.686,3.27-4.868,6.93-6.308,10.941c-1.516,4.066-1.959,8.503-1.495,12.728
				c1.065,8.169,4.905,15.359,10.166,21.16c-5.544,6.783-8.44,15.913-6.846,24.962c1.688,9.276,7.494,17.594,15.737,22.466
				c8.341,4.765,18.288,5.331,27.171,3.46c0.294-0.064,0.588-0.131,0.881-0.201c1.473,4.268,3.695,8.146,6.632,11.686
				c3.436,4.089,8.258,7.466,13.71,8.781c5.343,1.231,11.1,0.973,16.126-1.013c4.442-1.721,8.361-4.295,11.56-7.692
				c1.152,2.091,2.892,3.791,5.052,5.044c2.71,1.528,5.967,2.081,9.077,1.546c4.92-0.856,9.351-4.168,11.23-8.705
				c5.454,2.539,11.549,3.305,16.241,4.424c5.908,1.506,11.582,3.665,15.693,7.481c4.071,3.697,6.699,9.442,6.266,14.777
				c-0.34,5.454-4.177,10.324-9.278,13.451c-5.076,3.286-11.2,5.028-17.433,6.258c-12.601,2.429-25.559,3.542-38.501,4.132
				c-25.94,1.394-51.879,0.362-77.992,2.196c-13.006,1.138-26.097,3.514-38.323,8.824c-6.021,2.793-11.862,6.295-16.646,11.17
				c-4.794,4.827-8.272,11.11-9.667,17.851c-2.765,13.398,1.415,28.152,11.453,37.588c10.001,9.448,23.357,13.634,36.266,15.562
				c13.097,1.927,26.133,1.632,39.115,1.997l38.976,0.468c25.848,0.524,52.253,1.45,76.639,8.901
				c5.987,1.913,11.797,4.503,16.262,8.337c2.195,1.934,3.901,4.238,4.974,6.825c1.072,2.602,1.16,5.54,0.964,8.449
				c-0.731,5.625-4.439,10.729-9.534,14.312c-5.018,3.654-10.916,6.392-16.977,8.381l-0.161,0.049l-0.063,0.019
				c-0.316,0.098-0.546,0.392-0.547,0.74c0,0.429,0.347,0.777,0.776,0.778c12.444,0.033,25.392-1.518,36.601-8.459
				c5.478-3.495,10.106-9.192,11.461-15.918c1.389-6.574,0.539-13.637-3.188-19.49c-3.66-5.895-9.699-9.382-15.53-11.859
				c-5.947-2.45-12.12-3.899-18.291-5.036c-12.375-2.202-24.843-2.745-37.232-3.363c-24.801-1.217-49.601-1.084-74.317-2.259
				c-6.178-0.281-12.343-0.662-18.483-1.143c-6.197-0.458-12.082-1.185-17.717-3.152c-11.218-3.776-20.621-12.235-24.493-23.276
				c-1.998-5.555-2.879-11.239-1.545-16.812c1.241-5.577,4.1-10.839,8.177-14.947c4.075-4.117,9.172-7.278,14.762-9.32
				c5.559-2.15,11.578-2.907,17.703-3.658c24.53-2.548,49.389-3.137,74.122-4.505c12.386-0.539,24.765-1.238,37.157-2.16
				c12.377-1.028,24.81-2.281,37.06-5.331c12.056-3.105,24.692-8.06,33.275-18.612c7.223-9.304,10.886-21.717,8.497-33.432
				c3.143,0.377,6.321,0.402,9.428,0.083c8.893-0.897,17.496-3.787,25.111-8.56c0.42-0.271,0.836-0.548,1.249-0.831
				c4.327,4.094,9.391,7.126,15.067,9.113c6.582,2.211,14.143,2.343,20.692,0.455c6.67-1.652,13.156-5.224,17.716-10.606
				c4.058-4.863,6.503-10.733,7.129-16.933c6.223,2.523,13.261,2.825,19.84,0.51c7.49-2.389,12.861-9.788,14.065-17.326
				C875.26,222.102,873.122,213.955,867.775,208.17z M757.546,129.514c5.967-1.794,12.348-2.605,18.335-1.26
				c5.924,1.286,11.615,4.105,15.219,8.956c3.801,4.632,5.916,10.978,6.482,17.235l0.003,0.026c0.061,0.737,0.611,1.37,1.374,1.503
				l0.099,0.018c4.244,0.738,8.545,2.31,11.713,4.862c3.228,2.527,5.401,6,6.551,10.017c1.365,3.978,1.062,8.063-0.382,11.915
				c-1.578,3.786-4.486,7.329-7.891,10.096l-0.047,0.035c-0.388,0.181-0.649,0.584-0.624,1.038l0.031,0.579
				c0.216,4.036-0.112,8.037-1.895,10.663c-0.873,1.323-1.966,2.486-3.497,3.403c-0.608,0.413-1.278,0.767-1.983,1.102
				c-1.03-5.488-2.792-10.832-5.207-15.828c-3.901-8.044-9.935-15.005-17.214-19.974c-6.874-4.901-14.668-8.097-22.88-9.693
				c0.122-5.087-0.51-10.36-2.783-15.245c-1.908-4.331-5.262-7.976-9.202-10.619C747.063,134.15,752.296,131.291,757.546,129.514z
				 M571.874,258.987c-8.042,1.388-16.581,0.792-23.427-3.201c-6.91-3.705-11.974-10.853-13.882-18.545
				c-1.895-7.721,0.225-16.406,4.729-23.306l0.058-0.089c0.287-0.441,0.273-1.032-0.077-1.462l-0.029-0.038
				c-4.198-6.252-7.386-13.514-7.743-20.725c-0.704-7.232,2.684-14.017,7.17-19.715c4.69-5.547,11.135-9.575,18.192-11.496
				c6.402-1.774,13.246-1.696,19.793-0.036c-0.442,1.59-0.821,3.197-1.134,4.817c-1.229,6.904-0.985,13.944,0.025,20.793
				c2.071,12.842,8.243,24.8,17.031,34.093c-2.911,2.322-5.148,5.652-6.115,9.32c-1.167,4.831-0.728,9.606,0.866,14.154
				c1.023,2.759,2.645,5.278,4.637,7.418C585.807,254.939,578.966,257.77,571.874,258.987z M635.002,277.086
				c-2.029,0.415-4.206,0.201-6.219-0.488c-2.006-0.689-3.965-2.123-5.534-3.779l-0.013-0.012l-0.193-0.189
				c-0.497-0.486-1.29-0.537-1.846-0.092c-3.666,2.921-8.001,5.274-12.409,6.503c-4.434,1.236-9.035,1.366-13.365,0.113
				c-7.819-1.92-13.669-8.844-17.725-16.352c6.224-2.008,12.007-5.188,16.963-9.339c0.513,0.406,1.038,0.79,1.578,1.149
				c3.942,2.606,8.369,4.185,12.832,4.848c8.261,1.354,16.654,0.065,24.056-3.198c0.915,6.291,5.066,11.761,10.344,15.228
				C641.493,274.37,638.304,276.476,635.002,277.086z M752.462,267.918c-7.819,1.143-15.869-0.35-22.74-4.171
				c-3.442-1.902-6.575-4.427-9.185-7.406c-1.289-1.49-2.528-3.073-3.424-4.79c-0.5-0.879-0.954-1.855-1.254-2.789
				c3.184,0.456,6.441,0.391,9.602-0.279c4.09-0.898,8.099-2.658,11.405-5.653c3.211-3.111,5.274-6.688,6.741-10.698
				c2.99-7.966,1.31-17.609-4.435-23.82c-5.598-6.251-14.704-9.04-22.377-6.468c-0.332,0.11-0.549,0.45-0.49,0.806
				c0.065,0.396,0.437,0.665,0.834,0.601c7.351-1.193,14.688,2.229,18.949,7.654c4.152,5.594,5.239,13.058,2.649,19.446
				c-1.198,3.156-3.306,6.232-5.598,8.447c-2.372,2.173-5.56,3.675-8.876,4.604c-6.663,1.765-14.348,1.159-19.796-3.525
				l-0.067-0.051l-0.009-0.007c-0.611-0.455-1.476-0.329-1.931,0.282l-0.053,0.072c-2.264,3.038-5.193,5.598-8.213,7.072
				c-3.041,1.48-6.473,1.824-9.846,1.258c-3.299-0.518-6.093-2.25-7.912-5.118c-1.745-2.84-2.679-6.676-1.597-10.389l0.016-0.053
				c0.069-0.236-0.005-0.5-0.207-0.666c-0.269-0.222-0.668-0.183-0.89,0.088c-2.857,3.484-3.309,8.689-1.519,13.094
				c1.677,4.547,6.232,8.015,10.947,8.882c4.6,1.018,9.714,0.296,13.741-2.356c3.421-2.209,5.758-5.407,7.072-8.963
				c2.292,2.385,5.31,4.131,8.504,5.051c0.134,1.876,0.792,3.454,1.435,5.019c0.883,2.111,2.103,3.997,3.413,5.815
				c2.682,3.59,6.068,6.616,9.851,9.042c3.456,2.26,7.316,3.88,11.338,4.887c2.131,10.683-1.145,22.293-7.722,30.988
				c-7.095,9.062-18.537,14.416-30.083,17.848c-23.468,6.906-48.507,8.581-73.143,9.993l-37.137,1.327
				c-12.394,0.308-24.783,0.555-37.226,1.46c-12.23,0.672-25.93,3.555-35.375,13.132c-4.727,4.594-8.16,10.58-9.729,17.06
				c-0.762,3.249-1.097,6.622-0.756,10.061c0.443,3.316,1.148,6.499,2.336,9.589c2.2,6.21,6.062,11.81,10.878,16.283
				c4.934,4.37,10.796,7.553,16.955,9.525c6.146,1.992,12.697,2.607,18.845,2.904c6.221,0.33,12.433,0.557,18.638,0.684
				c24.812,0.546,49.589,0.746,74.3,1.765c12.348,0.538,24.677,1.602,36.685,3.934c5.973,1.232,11.896,2.774,17.365,5.172
				c5.384,2.428,10.521,5.681,13.47,10.428c3.05,4.597,3.68,10.796,2.671,16.277c-0.99,5.535-4.58,10.318-9.412,13.605
				c-6.93,4.678-15.262,7.269-23.824,8.75c2.882-1.093,5.682-2.447,8.344-4.137c5.65-3.507,11.08-9.169,12.122-16.656
				c0.357-3.526,0.331-7.242-0.986-10.75c-1.306-3.463-3.501-6.522-6.132-8.947c-5.438-4.662-11.888-7.212-18.237-9.184
				c-12.849-3.637-25.96-4.848-38.998-5.498c-13.031-0.703-26.033-0.785-39.03-1.216l-38.965-0.89
				c-12.956-0.505-26.035-0.352-38.651-2.403c-12.533-2.013-25.157-6.308-34.09-15.01c-9.03-8.529-12.284-22.05-10.174-34
				c1.153-6.005,4.113-11.603,8.405-16.066c4.278-4.498,9.687-7.878,15.375-10.624c11.577-5.252,24.363-7.783,37.152-9.169
				c12.814-1.358,25.828-1.502,38.814-1.707l38.999-0.694c13.006-0.456,26.059-0.805,39.093-2.742
				c6.511-0.975,13.243-2.472,19.317-5.979c6.021-3.27,11.677-9.312,12.59-17.059c0.915-7.652-2.178-15.049-7.355-20.349
				c-5.253-5.332-12.118-8.199-18.76-9.705c-6.983-1.577-12.798-1.504-18.036-4.335c-5.188-2.366-9.582-6.93-11.256-12.533
				l-0.04-0.134c-0.248-0.824-1.108-1.308-1.945-1.083l-0.024,0.007c-7.8,2.295-16.069,3.057-23.726,1.338
				c-7.555-1.651-14.645-5.846-17.191-12.702c-2.659-6.899-1.591-15.099,4.848-19.097c3.079-2.015,6.983-3.028,10.81-2.86
				c3.867-0.026,7.711,1.588,9.9,4.926l0.028,0.042c0.147,0.223,0.431,0.327,0.694,0.234c0.311-0.109,0.473-0.448,0.365-0.759
				c-1.542-4.391-6.18-7.084-10.618-7.776c-4.459-0.67-9.127-0.025-13.319,2.057c-3.607-4.581-6.679-9.504-9.131-14.725
				c-2.563-5.873-4.537-11.999-5.464-18.31c-1.841-12.571,0.093-25.785,6.692-36.522c6.624-10.719,18.077-17.775,30.468-20.938
				c12.228-3.149,26.126-1.598,36.723,5.509c0.682,0.456,1.623,0.312,2.121-0.353l0.055-0.073c3.181-3.774,8.018-6.573,12.886-8.065
				c4.882-1.63,10.118-2.004,15.094-1.017c4.999,0.945,9.791,2.822,13.49,6.158c3.751,3.259,6.355,7.667,7.907,12.41
				c1.464,4.784,1.614,9.997,0.402,14.837c-1.332,4.782-4.142,9.107-8.13,12.181c-3.958,3.073-9.077,4.698-14.254,4.645
				c-5.125,0.056-10.636-1.505-14.186-5.358l-0.036-0.04c-0.221-0.24-0.59-0.289-0.869-0.101c-0.307,0.207-0.388,0.625-0.18,0.932
				c3.363,4.978,9.385,7.205,15.109,7.806c5.837,0.566,11.951-0.921,16.985-4.267c5.09-3.25,8.801-8.588,10.56-14.376
				c1.66-5.821,1.66-12.038,0.072-17.862c-0.024-0.089-0.054-0.176-0.08-0.264c3.901-1.608,8.377-2.244,12.732-2.152
				c4.923-0.006,9.788,1.152,14.123,3.171c4.328,2.078,7.926,5.414,10.316,9.621c2.353,4.253,3.405,9.207,4,14.311v0.001
				c0,0.575,0.375,1.107,0.955,1.279l0.155,0.046c15.617,4.631,29.775,15.285,36.145,29.893c6.26,14.491,7.31,32.045-0.009,45.981
				c-3.661,6.902-9.025,12.902-15.602,17.297C768.068,264.168,760.292,266.851,752.462,267.918z M868.636,228.803
				c-0.913,6.153-4.766,11.373-10.481,13.777c-5.685,2.406-12.731,2.442-18.785,0.373l-0.032-0.011
				c-0.097-0.032-0.215-0.061-0.319-0.075c-0.871-0.11-1.666,0.507-1.777,1.377c-0.789,5.973-3.637,11.852-7.683,16.186
				c-4.217,4.247-9.614,7.235-15.617,8.485c-6.025,1.411-11.981,1.443-17.765-0.478c-4.577-1.424-9.073-3.823-12.954-6.785
				c5.365-4.37,9.946-9.769,13.19-15.948c4.813-9.654,6.426-20.376,5.368-30.815c0.149-0.023,0.298-0.044,0.448-0.067
				c1.17-0.417,2.383-0.659,3.525-1.3c2.367-1.008,4.427-3.076,5.775-5.422c1.314-2.409,1.794-5.129,1.55-7.612
				c-0.203-2.104-0.702-4.041-1.643-5.859c4.127-2.148,7.6-5.437,9.964-9.729c0.229-0.412,0.438-0.834,0.632-1.263
				c5.741-1.522,11.869-1.078,16.345,2.106c4.958,3.198,6.949,9.497,7.32,16.112v0.013c0.038,0.814,0.644,1.517,1.481,1.646
				c6.359,0.98,12.956,3.5,16.878,8.084C868.082,216.122,869.545,222.771,868.636,228.803z"/>
		</g>
		<g>
			<linearGradient id="SVGID_10_" gradientUnits="userSpaceOnUse" x1="545.7863" y1="513.2937" x2="863.1391" y2="114.6679">
				<stop  offset="0.0261" style="stop-color:#FFD998"/>
				<stop  offset="0.3787" style="stop-color:#EBB559"/>
				<stop  offset="0.7437" style="stop-color:#FFE8B3"/>
				<stop  offset="1" style="stop-color:#EFC57C"/>
			</linearGradient>
			<path style="fill:url(#SVGID_10_);" d="M779.746,193.679c9.319,13.873,10.922,33.568,1.947,48.659
				c-4.649,7.391-11.819,13.052-19.956,15.876c-8.084,2.84-17.35,2.864-24.88-0.999c7.98,2.608,16.58,1.839,24.025-1.259
				c7.448-3.091,14.069-8.356,18.132-15.248c4.305-6.802,6.149-14.979,6.164-23.1C785.189,209.454,783.262,201.259,779.746,193.679z
				"/>
			<linearGradient id="SVGID_11_" gradientUnits="userSpaceOnUse" x1="414.1324" y1="408.4822" x2="731.4854" y2="9.8563">
				<stop  offset="0.0261" style="stop-color:#FFD998"/>
				<stop  offset="0.3787" style="stop-color:#EBB559"/>
				<stop  offset="0.7437" style="stop-color:#FFE8B3"/>
				<stop  offset="1" style="stop-color:#EFC57C"/>
			</linearGradient>
			<path style="fill:url(#SVGID_11_);" d="M649.874,141.246c-8.024-3.864-17.066-4.94-25.576-3.511
				c-8.49,1.431-16.661,5.233-22.532,11.439c-6.055,6.024-9.668,14.279-10.886,22.802c-1.224,8.541,0.071,17.554,4.123,25.484
				c-5.208-7.292-7.322-16.687-6.522-25.758c0.782-9.091,4.64-18.001,11.041-24.719c6.565-6.553,15.373-10.636,24.444-11.629
				C633.015,134.334,642.457,136.22,649.874,141.246z"/>
			<linearGradient id="SVGID_12_" gradientUnits="userSpaceOnUse" x1="519.6057" y1="492.4499" x2="836.9587" y2="93.8239">
				<stop  offset="0.0261" style="stop-color:#FFD998"/>
				<stop  offset="0.3787" style="stop-color:#EBB559"/>
				<stop  offset="0.7437" style="stop-color:#FFE8B3"/>
				<stop  offset="1" style="stop-color:#EFC57C"/>
			</linearGradient>
			<path style="fill:url(#SVGID_12_);" d="M696.441,312.805c4.349-4.419,6.529-10.39,6.651-16.24
				c0.116-5.871-1.932-11.601-5.383-16.329c-3.398-4.801-8.136-8.556-13.454-11.282c-5.343-2.724-11.277-4.341-17.36-5.42
				c6.19-0.22,12.492,0.814,18.366,3.225c5.89,2.355,11.211,6.407,14.996,11.647c3.74,5.22,5.977,11.822,5.234,18.308
				C704.87,303.107,701.687,309.36,696.441,312.805z"/>
			<linearGradient id="SVGID_13_" gradientUnits="userSpaceOnUse" x1="419.4523" y1="412.7158" x2="736.8039" y2="14.0916">
				<stop  offset="0.0261" style="stop-color:#FFD998"/>
				<stop  offset="0.3787" style="stop-color:#EBB559"/>
				<stop  offset="0.7437" style="stop-color:#FFE8B3"/>
				<stop  offset="1" style="stop-color:#EFC57C"/>
			</linearGradient>
			<path style="fill:url(#SVGID_13_);" d="M546.721,218.529c-4.57,8.949-2.148,19.971,4.682,26.087
				c6.967,6.129,17.835,7.222,26.86,2.993c-7.782,6.505-20.797,6.559-28.941-0.645c-4.029-3.621-6.475-8.759-6.918-13.996
				C541.898,227.763,543.297,222.292,546.721,218.529z"/>
			<linearGradient id="SVGID_14_" gradientUnits="userSpaceOnUse" x1="505.6794" y1="481.3613" x2="823.0315" y2="82.7364">
				<stop  offset="0.0261" style="stop-color:#FFD998"/>
				<stop  offset="0.3787" style="stop-color:#EBB559"/>
				<stop  offset="0.7437" style="stop-color:#FFE8B3"/>
				<stop  offset="1" style="stop-color:#EFC57C"/>
			</linearGradient>
			<path style="fill:url(#SVGID_14_);" d="M751.393,209.384c-5.591-9.143-14.938-15.322-25.03-16.503
				c-10.095-1.161-20.603,2.702-28.153,10.309c5.621-9.29,17.329-14.732,28.515-13.425
				C737.912,191.072,748.05,199.055,751.393,209.384z"/>
			<linearGradient id="SVGID_15_" gradientUnits="userSpaceOnUse" x1="509.817" y1="484.6573" x2="827.1693" y2="86.0323">
				<stop  offset="0.0261" style="stop-color:#FFD998"/>
				<stop  offset="0.3787" style="stop-color:#EBB559"/>
				<stop  offset="0.7437" style="stop-color:#FFE8B3"/>
				<stop  offset="1" style="stop-color:#EFC57C"/>
			</linearGradient>
			<path style="fill:url(#SVGID_15_);" d="M760.327,136.877c7.504-2.447,16.395-0.514,22.772,4.589
				c6.362,5.124,10.166,13.396,9.383,21.251c-1.734-7.599-5.641-14.227-11.348-18.805
				C775.44,139.318,768.12,136.926,760.327,136.877z"/>
			<linearGradient id="SVGID_16_" gradientUnits="userSpaceOnUse" x1="591.1885" y1="549.431" x2="908.5364" y2="150.8115">
				<stop  offset="0.0261" style="stop-color:#FFD998"/>
				<stop  offset="0.3787" style="stop-color:#EBB559"/>
				<stop  offset="0.7437" style="stop-color:#FFE8B3"/>
				<stop  offset="1" style="stop-color:#EFC57C"/>
			</linearGradient>
			<path style="fill:url(#SVGID_16_);" d="M845.541,208.473c3.481-0.046,7.004,1.116,9.982,3.204c3.024,2.047,5.3,5.26,6.388,8.817
				c1.057,3.552,0.922,7.613-0.834,10.925c-1.658,3.294-4.63,5.932-8.068,6.674c5.765-3.924,7.806-10.824,5.898-16.699
				C857.193,215.368,851.995,210.844,845.541,208.473z"/>
			<linearGradient id="SVGID_17_" gradientUnits="userSpaceOnUse" x1="584.3047" y1="543.9624" x2="901.6609" y2="145.3324">
				<stop  offset="0.0261" style="stop-color:#FFD998"/>
				<stop  offset="0.3787" style="stop-color:#EBB559"/>
				<stop  offset="0.7437" style="stop-color:#FFE8B3"/>
				<stop  offset="1" style="stop-color:#EFC57C"/>
			</linearGradient>
			<path style="fill:url(#SVGID_17_);" d="M831.257,240.667c0.51,7.599-4.054,15.387-10.874,19.386
				c-6.839,3.995-15.742,4.188-22.277,0.345c7.34,1.44,14.685,0.468,20.692-3.052C824.794,253.837,829.264,247.883,831.257,240.667z
				"/>
			<linearGradient id="SVGID_18_" gradientUnits="userSpaceOnUse" x1="449.6553" y1="436.7607" x2="767.0056" y2="38.1381">
				<stop  offset="0.0261" style="stop-color:#FFD998"/>
				<stop  offset="0.3787" style="stop-color:#EBB559"/>
				<stop  offset="0.7437" style="stop-color:#FFE8B3"/>
				<stop  offset="1" style="stop-color:#EFC57C"/>
			</linearGradient>
			<path style="fill:url(#SVGID_18_);" d="M502.611,347.1c-6.789,6.926-11.135,15.787-11.301,25.01
				c-0.205,9.222,3.795,18.244,10.341,25.402c-8.23-5.267-13.686-15.238-13.477-25.465
				C488.395,361.82,494.216,352.094,502.611,347.1z"/>
		</g>
	</g>
</g>
</svg>